<?xml version="1.0" standalone="no"?>
<!DOCTYPE svg PUBLIC "-//W3C//DTD SVG 20010904//EN"
 "http://www.w3.org/TR/2001/REC-SVG-20010904/DTD/svg10.dtd">
<svg version="1.0" xmlns="http://www.w3.org/2000/svg"
 width="175.000000pt" height="175.000000pt" viewBox="0 0 175.000000 175.000000"
 preserveAspectRatio="xMidYMid meet">
<metadata>
Created by potrace 1.11, written by Peter Selinger 2001-2013
</metadata>
<g transform="translate(0.000000,175.000000) scale(0.100000,-0.100000)"
fill="#000000" stroke="none">
<path d="M944 1739 c-405 -29 -740 -344 -792 -746 -19 -149 7 -342 62 -467 73
-164 226 -330 387 -419 64 -35 181 -76 237 -83 25 -3 50 -7 54 -10 17 -10 216
-7 268 5 155 34 271 86 372 167 89 70 101 151 31 212 -53 47 -106 42 -183 -16
-76 -58 -162 -97 -260 -119 -37 -8 -213 -3 -257 8 -57 14 -176 69 -218 101
-165 127 -258 317 -251 513 5 122 18 178 64 270 71 144 236 281 378 316 22 5
48 12 59 14 21 6 186 6 220 1 81 -12 181 -56 262 -117 64 -48 93 -60 130 -53
82 15 128 95 97 169 -16 38 -122 124 -210 168 -132 67 -290 97 -450 86z"/>
<path d="M883 1345 c-84 -19 -156 -59 -224 -125 -106 -104 -157 -236 -146
-383 10 -131 52 -223 146 -316 187 -186 488 -185 677 3 185 184 196 474 25
668 -53 59 -148 123 -215 144 -72 22 -189 26 -263 9z m237 -150 c78 -28 169
-119 199 -199 34 -91 28 -205 -16 -290 -29 -56 -102 -123 -166 -152 -52 -24
-75 -28 -143 -28 -71 0 -89 4 -147 32 -74 37 -137 101 -170 172 -31 66 -30
215 1 283 36 79 153 182 218 191 7 1 16 5 19 8 13 13 153 1 205 -17z"/>
</g>
</svg>
